<?xml version="1.0" encoding="UTF-8"?>
<!DOCTYPE svg PUBLIC "-//W3C//DTD SVG 1.1//EN" "http://www.w3.org/Graphics/SVG/1.1/DTD/svg11.dtd">
<!-- Creator: CorelDRAW X7 -->
<svg xmlns="http://www.w3.org/2000/svg" xml:space="preserve" width="8.75in" height="3.25in" version="1.1" style="shape-rendering:geometricPrecision; text-rendering:geometricPrecision; image-rendering:optimizeQuality; fill-rule:evenodd; clip-rule:evenodd"
viewBox="0 0 8750 3250"
 xmlns:xlink="http://www.w3.org/1999/xlink">
 <defs>
  <style type="text/css">
   <![CDATA[
    .fil0 {fill:#225499}
    .fil1 {fill:#BB4172}
   ]]>
  </style>
 </defs>
 <g id="Layer_x0020_1">
  <metadata id="CorelCorpID_0Corel-Layer"/>
  <path class="fil0" d="M1848 362l0 783c-122,0 -245,0 -367,0l0 -415 -741 0 0 415 -368 0 0 -783 1476 0zm-554 440l0 1615 201 0c0,123 0,245 0,368 -256,0 -513,0 -769,0 0,-123 0,-245 0,-368l201 0 0 -1615c122,0 245,0 367,0zm1671 552c0,122 0,245 0,367 -141,0 -282,0 -423,0 0,-122 0,-245 0,-367 141,0 282,0 423,0zm213 648c0,261 0,522 0,783 -425,0 -851,0 -1277,0 0,-123 0,-245 0,-368l191 0 0 -1687 -191 0 0 -368c426,0 852,0 1277,0l0 783c-122,0 -244,0 -367,0l0 -415 -352 0 0 1687 352 0 0 -415c123,0 245,0 367,0zm1529 -857c-123,0 -245,0 -367,0l0 -415 -742 0 0 415c-122,0 -244,0 -367,0l0 -783c492,0 984,0 1476,0l0 783zm-554 -343l0 1615 201 0c0,123 0,245 0,368 -257,0 -513,0 -770,0 0,-123 0,-245 0,-368l201 0 0 -1615c123,0 245,0 368,0zm2856 -440c0,123 0,245 0,368l-201 0 0 1687 201 0 0 368 -1127 0 -401 -1091 -164 163 0 560 201 0c0,123 0,245 0,368 -256,0 -512,0 -769,0 0,-123 0,-245 0,-368l201 0 0 -1687 -190 0 0 -368c425,0 851,0 1277,0l0 776 -275 274 370 1005 309 0 0 -1687 -201 0c0,-123 0,-245 0,-368 256,0 512,0 769,0zm-1692 978l353 -353 0 -257 -353 0 0 610zm2600 634l-831 -831 0 -781c399,0 799,0 1198,0 0,261 0,522 0,783 -122,0 -244,0 -367,0l0 -415 -464 0 0 253 831 832 0 970 -1198 0 0 -783c122,0 244,0 367,0l0 415 464 0 0 -443z"/>
  <path class="fil1" d="M421 411c460,0 919,0 1379,0l0 686 -270 0 0 -416 -839 0 0 416 -270 0 0 -686zm554 440l270 0 0 1615 201 0 0 270c-224,0 -448,0 -672,0l0 -270 201 0 0 -1615zm1615 552l326 0 0 270 -326 0 0 -270zm270 647l270 0 0 686 -1180 0 0 -270 190 0 0 -1785 -190 0 0 -270 1180 0 0 686 -270 0 0 -416 -450 0 0 1785 450 0 0 -416zm1798 -1639l0 686 -270 0 0 -416 -838 0 0 416 -270 0 0 -686c459,0 919,0 1378,0zm-824 440l270 0 0 1615 201 0 0 270c-224,0 -448,0 -672,0l0 -270 201 0 0 -1615zm2454 -440l672 0 0 270 -201 0 0 1785 201 0 0 270 -1045 0 -415 -1130 -231 231 0 629 201 0 0 270 -672 0 0 -270 201 0 0 -1785 -191 0 0 -270 1180 0 0 707 -282 282 392 1066 391 0 0 -1785 -201 0 0 -270zm-570 596l-449 450 0 -776 449 0 0 326zm1416 116l832 831 0 512 -562 0 0 -416 -270 0 0 686c367,0 735,0 1102,0l0 -901 -832 -832 0 -322 562 0 0 416 270 0 0 -686c-367,0 -735,0 -1102,0l0 712z"/>
 </g>
</svg>
